<svg version="1" xmlns="http://www.w3.org/2000/svg" width="2262.667" height="2262.667" viewBox="0 0 1697.000000 1697.000000"><path d="M989.7.6c-.1.1-4 .4-8.7.8-12.2.9-24.2 2.1-33 3.2-5.2.7-12.5 3.4-18.6 7-5 3-6.1 4.2-6.7 7.4-.3 1.4-1.2 6.5-2.1 11.5-.9 4.9-2.1 11-2.6 13.5-.6 2.5-1.2 5.8-1.5 7.5-.3 1.6-.7 4.1-1 5.5-.8 3.7-6.5 33.7-7.6 40.1-1 5.5-1.2 5.7-4.7 6.3-9.3 1.5-39.4 7.6-40.2 8.1-.4.2-.5 1.7-.3 3.2.3 1.9 1.1 2.9 2.3 3 1 .1 8.8 1.1 17.2 2.3 8.4 1.2 16.1 2.2 17 2.4 1 .1 2 .4 2.2.7.3.3-.6 5.1-1.9 10.8-2.3 9.9-2.3 10.7-.9 18 .8 4.2 1.7 9.2 2 11.1.3 2.1 4.4 9.2 10.2 18 5.3 8 9.6 15.2 9.5 16 0 1.3-1.7 13.7-2.8 21-.2 1.4-.7 4.5-1 7-.3 2.6-1.9 6.4-3.7 9-1.7 2.5-5.3 7.7-8.1 11.7-2.7 3.9-5.6 7.8-6.6 8.6-.9.7-15.5 5.5-32.4 10.6-54.6 16.4-112.4 41.6-126.3 55.1-9.6 9.3-14.1 16-16.4 24.1-2 7.4-2.3 8.9-4 20.4-.4 3.3-.7 22.1-.5 41.8l.3 35.8-6.5 9.7c-6.5 9.7-7.8 12.3-8.7 16.5-1.3 5.6-10.5 37.8-11.7 40.7-.6 1.3-3.9 7-7.4 12.6-7 11.1-6.7 9.9-8 31.9-.3 4.9-.7 12.4-1 16.5-.2 4.1-.7 11.5-1 16.5-.6 10.1.5 8.5-13 19.5-14.1 11.6-17.8 19.4-20 42-.1 1.4-.6 5.6-1 9.5-.4 3.8-.8 8.1-.9 9.5-.1 1.4-7.9 18-17.3 37-15 30.3-17.9 36.9-23.8 54.6l-6.6 20.1-14.7-3.4c-8.1-1.8-22.8-5.2-32.7-7.4-9.9-2.2-18.7-4.2-19.5-4.4-5.3-1.2-16.7-3.8-24-5.5-4.7-1-12.3-2.8-17-3.8-38.7-8.9-45.3-10.1-55.1-10.6-13.4-.7-45.1-1.9-46.4-1.8-2.7.1-28.5 6-40.6 9.4l-7.6 2-.2 5.2c-.2 2.8-.4 7.8-.6 11.1-.2 3.3 0 8.2.5 11 .4 2.7 1.4 8.6 2 13 1.1 6.9 2.6 10.7 11 27.6 8.2 16.5 12.5 23.4 27.1 44.3 16.2 23.2 29.3 39.5 51.9 64.8 4.5 5 5 5.7 5 6.5 0 .7-14.8 10.2-17.5 11.2-.5.2-1.2.7-1.5 1-.3.4-1.8 1.5-3.5 2.5-1.6 1.1-7.5 5.6-13 10.2-7.9 6.5-10.7 9.5-13.2 14.2l-3.2 6 .5 13.9.5 13.8 6.3 14c5.1 11.4 12.3 23.4 16.6 27.5.3.3 3 3.6 5.9 7.5 3 3.8 7 8.5 9 10.4 22.4 21 28.2 26.4 32.1 29.7 2.5 2.1 5.2 4.6 6 5.4.8.9 4.5 4.1 8.2 7.3 4.8 4.2 6.5 6.3 6.1 7.5-.3.9-7.1 17.8-15.1 37.5-13.6 33.6-14.7 36-18.3 38.5-3.4 2.5-4.5 4.6-13 25.7-5.5 13.8-9.1 24.2-9 26 .2 3.4.9 7.7 1.3 8 .2.1 3.3 2.2 6.9 4.7l6.5 4.5 6.4-2.1 6.4-2.2 10.7-20.9c5.9-11.6 11.5-23.7 12.3-27.1.8-3.3 5.4-15 10.2-26 4.7-10.9 11.2-26 14.4-33.4 3.2-7.4 6.2-13.6 6.7-13.7.4-.1 4.9 3.5 9.8 8.2 7.7 7.1 11.7 9.9 27 18.3 9.9 5.4 21.2 11.1 25 12.6 3.9 1.5 8.4 3.4 10 4.1 15.8 6.9 21.9 8.8 33.5 10.6 13.3 2.1 31.5 4.8 36.5 5.5 1.6.2 3.9.6 5.1.8 1.2.2 4.5.7 7.5 1.1 3 .4 5.6.8 5.9 1 .3.2 3.4.6 7 1s6.8.9 7.3 1.2c.4.2 6.9.6 14.5.8 17.5.6 25.4 1.3 28.7 2.5 1.4.5 7.2 2.1 12.8 3.4 5.6 1.4 23.5 5.8 39.9 10 33.3 8.5 31 8.1 53.3 10.1 3.3.3 7.6.7 9.5 1 1.9.2 7.3.7 12 1.1 4.7.3 8.6.7 8.8.9.6.6.7 36.6.2 51l-.5 14 4.3 13c9.6 28.8 13.7 39.1 20.3 51.2 3.8 7 6.9 12.8 6.9 13 0 .1 2.4 4.7 5.4 10 13.4 24.6 12.5 22.2 13.1 33 .3 5.4.8 12.7 1 16.3.4 5.7 1 15.7 1.9 31.4.2 2.7 0 6.3-.5 8-.4 1.7-1 4.4-1.2 6.1-.3 1.6-1.3 6.5-2.2 10.9-1.3 6.2-1.5 10.7-1 21.9.7 16.1 1.1 17.2 11.8 38.5l7.1 14.3 7.1 2.1 7 2.2 10.4-2.8c5.7-1.5 10.8-2.3 11.2-1.9.4.4 1 5.1 1.4 10.3.3 5.2.8 11.3 1 13.5.8 8.2 1.4 15.3 2 24 .3 4.9.8 11 1.1 13.4.3 3.2-.6 8-3.1 16.9-2.8 9.6-3.5 13.6-3.1 17.3.4 2.7.8 7 1.1 9.6 1.9 19.7 2.6 25.7 3.1 26.2.2.2 25.3.5 55.9.7l55.5.3.5-2.2c.7-3.4 3.5-20.6 4.1-25.1.2-2.3.9-6.6 1.4-9.6.5-3 1.2-7.5 1.5-10 .3-2.5.9-6.8 1.5-9.5.5-2.8 1.2-7 1.5-9.5 1.1-7.7 3.2-18.7 7.9-41.1 5.3-25.6 5.4-26.1 6.1-29.7.3-1.5 3.7-18.7 7.5-38.2 3.8-19.5 7.6-39.3 8.4-44 1.4-7.8 5-27.8 6-32.5.3-1.8 1.2-6.7 2.2-13 .1-1.1.7-4.7 1.3-8 .6-3.3 1.3-7.4 1.5-9 .6-4 3.7-22.6 4.1-24.5.9-4.5 1.6-15.5 2-32 .3-10.2.7-23 1-28.5 2.1-54.7 2.1-58.9 0-105-.3-6.1-.7-15.2-1-20.3-.3-8.1-1.7-17.9-4.1-28.7-.3-1.7-.8-9-1.1-16.3-.6-13.9-.7-12.7 5.8-46.7 1-5.5 2.1-11.7 2.5-13.9.3-2.1.7-4.6.9-5.5.2-.9.9-4.5 1.5-8.1 1.5-7.5 3.7-10.5 20.8-28.9 5.9-6.2 12.4-13.2 14.5-15.5 2-2.2 7.2-10.4 11.5-18.1 4.2-7.7 9.2-16.7 11-20 1.9-3.3 4.7-8.3 6.3-11.2 4-7 21.2-65.3 20.6-69.7-.5-3.2-9-41.2-10.7-47.6-.5-1.9-1.1-4.6-1.4-6-.5-2.9-5.6-25.6-18.6-82.5-5-22-9.3-40.9-9.5-42-.3-1.1-1-4.1-1.6-6.7-1-4.4-.1-11.7 3.6-27.8 3.2-14 14.1-71.3 15-78.5.4-2.8.7-14.8.8-26.7.1-12 .5-21.8.8-21.8.3 0 1.6 2.4 2.9 5.2 1.3 2.9 4.7 10.2 7.6 16.3 7.2 15.3 14.3 30.5 19.2 41.5 1.1 2.5 3.8 8.5 6 13.5 3.3 7.2 5 13.6 8.7 32 2.6 12.6 4.9 24.3 5.1 26 .3 1.6 2.6 7.2 5.1 12.3l4.6 9.3-.2 10.7c-.1 5.9-.3 15.3-.5 20.9l-.2 10.2 4.6 3.5c9 6.9 8.9 5.9 2.1 18.2-5.3 9.6-6.2 12.3-8.2 22.3-1.5 8.3-1.9 13.2-1.5 17.5.4 3.4.9 8.3 1.2 11.1.2 2.7 1.4 8.3 2.7 12.4 2.1 7 2.5 7.5 7.9 11.1l5.7 3.8 4.5-2.9c5.9-4 6.1-4.2 8.6-13.7 1.2-4.6 2.4-8.2 2.5-8 .9 1 1.2 11.8.5 17.1-.5 3.4-1.1 8-1.4 10.2-.3 2.2-.8 5.8-1.2 8-.8 5-.8 4.9 0 11.3.9 7.4 4 11.8 9.4 13.3 3.9 1.1 4.9.9 11.4-1.7 9.7-3.9 20.6-13.4 27-23.6 8.1-13.1 15-32.3 17.4-48.3.3-2.2.9-5.6 1.4-7.5 1.2-4.5 1.8-8.2 2.5-15 .3-3 .7-7.5 1-10 .2-2.5.7-7.4 1-11 .9-11.1 1.6-14.4 4-18.8 2.6-4.6 6.8-23.2 6.7-29.7 0-3.7-.8-22.5-1.7-39-.2-3.9-.6-8.6-.9-10.5-.3-1.9-.8-6.2-1.1-9.5-.4-3.3-.8-7.4-1-9-.4-3.1-1.2-10.4-2-19-.3-2.8-.9-8.4-1.4-12.5-1-7.4-1.6-12.6-2.6-21.8-.3-2.6-.8-6.3-1-8.2-.3-1.9-.7-5.8-1.1-8.5-.3-2.8-1.9-10.6-3.6-17.5-1.6-6.9-3.2-13.5-3.4-14.8-.3-1.3-1.8-8.3-3.5-15.5-1.7-7.3-4.2-17.7-5.5-23.2-1.3-5.5-6.6-22.8-11.8-38.4-7.8-23.2-10.6-30.1-15-37.6-3.8-6.3-5.8-10.9-6.5-15.1-.6-3.3-2.6-10.8-4.5-16.7-3.5-11.1-3.2-10.6-15.3-23.3-2.9-3-5.3-5.7-5.3-6 0-.3-1.6-2.9-3.5-5.9-1.9-3-3.3-5.5-3.1-5.5.2 0 0-1.9-.4-4.3-.5-2.3-1.1-6.2-1.5-8.7-3-20.2-11.5-44.2-19.7-55.3-5.8-7.8-24.5-22.5-31.8-25-24.6-8.5-73.3-26.2-101-36.8-21.4-8.2-39.4-17.2-49.7-24.8l-8.3-6.1 3.7-6.2c2.6-4.4 4.5-10 6.9-19.7l3.2-13.4-2.4-14.1c-2.4-13.7-2.4-14.3-.8-20.4.9-3.4 1.9-6.4 2.3-6.6.3-.2 3.3-.7 6.6-1.1 3.3-.3 7.6-.8 9.5-1.1 6.9-.8 12.6-1.4 17.5-2 2.8-.3 6.8-.7 9-1 2.2-.3 6.9-2.2 10.5-4.2 6.4-3.7 6.4-3.7 7.6-9.7.7-3.3 1.2-6 1.1-6.1-.1 0-4-2.6-8.6-5.8-8.7-6-11.2-7.2-16.4-8.2-2.9-.5-23.9-5.5-24.4-5.8-.1-.1-.4-1.3-.7-2.6-.2-1.4-1.8-8.6-3.4-16-1.7-7.4-3.3-16.7-3.7-20.5-.4-3.9-.8-7.7-1-8.5-.2-.8-.7-4.4-1-8-1.6-16.9-2.4-21.9-4.4-24.9-5.9-9.6-13.7-19.1-15.5-19.2-8.9-.5-17.7-1.5-21.3-2.4-1.3-.3-3.1-.7-4-.9-1-.2-4.6-1.1-8-2-4.3-1.1-9.5-1.5-17.3-1.4-6.1.2-11.2.4-11.3.4zm29.6 10.3c1.5.6 2.7.8 2.7.6 0-.2 1.1 0 2.4.5 1.3.5 6.1 1.2 10.7 1.6 4.6.3 8.5.7 8.6.8.2.1-.6 2.4-1.6 5.2-1.7 4.3-1.7 5.4-.6 8.7.7 2.1 1.6 4.1 1.9 4.4.8.8 2.5-4.1 2.2-6.3-.6-3.5 1.2-5.5 4.9-5.2 3.7.2 5.4 2 9.3 9.6 3.5 6.8 4.3 11.2 5.7 32.2l.7 9.6-2.9-.2c-1.5-.1-2.8-.3-2.8-.4 0-.1-1.6-.3-3.5-.6-1.9-.2-3.7-.9-3.8-1.4-.2-.6-.7-.8-1.1-.5-.5.2-3.9-.2-7.7-1-6.4-1.3-13.2-1.9-33.8-3-4.3-.3-8-.6-8.2-.8-.9-.9 2.9-10.8 6.2-16.2 4.6-7.4 11.3-19.5 11-19.5-.2 0 0-1.8.4-3.9.4-2.2.4-4.4.1-4.9-.3-.5-3-2.1-5.9-3.6-5.9-3-9.2-5.9-9.2-8 0-1.2.8-1.2 5.8-.1 3.1.8 6.9 1.8 8.5 2.4zm-91.8 43.6c0 8-.2 14.6-.5 14.6-.3.1-1.7.3-3.2.4-2.9.4-2.8 1-1.3-8 .2-1.7.7-4.8 1-7 1.1-7.7 2.6-14.5 3.3-14.5.4 0 .7 6.5.7 14.5zm-7.1 27.1c-1.2 7.8-2.4 13.4-3.5 17.1-1.4 4.6-3.2 4.2-2.4-.5.3-2 .8-5.5 1.1-7.7 1-8.3 1.6-11 2.7-11.7 2.2-1.4 2.7-.8 2.1 2.8zm146.6 4.6c3.7 7 6.5 17.6 5.5 20.7-.6 1.9-5.5 2.7-5.5.8 0-.8-.3-.8-.9.2-.6.9-1.8 1.1-3.5.7-2.5-.6-2.6-.8-2.2-7.4.3-3.7.5-9.5.5-13 .1-5.4.3-6.2 2-6.2 1.2 0 2.7 1.5 4.1 4.2zm-55.5 24.2c7.2.2 16.3.5 20.3.5 5.1.1 7.1.4 6.6 1.2-.5.8-.1.8 1.3 0 1.1-.6 2.2-.9 2.4-.7.2.3 4.9.7 10.4 1.1 5.5.4 10.7.8 11.5 1 .8.1 4 .6 7 .9 30.8 3.8 51.9 11.1 49.6 17.1-1.5 4.1-11.6 7.7-25.6 9.2-7.3.8-41.4.8-46.5 0-22.8-3.5-22.4-3.4-26.3-3.6-1.8 0-3.1-.4-2.9-.9.3-.4-1.1-.7-3.1-.7-2.1-.1-5.5-.4-7.7-.8-7.2-1.3-14.9-2.7-18.9-3.3-2.1-.3-4.6-.7-5.5-.9-32.4-6.3-69.3-15.4-68.4-16.8.3-.6.1-.7-.5-.3-1.1.7-10.6-1.3-9.9-2.1.3-.2 9.8-.6 21.3-.9 11.5-.4 21-.7 21.1-.8.3-.3 51.4.3 63.8.8zm-102.4 25.9c-.8 4.4-.7 4.6 1.6 4.9 2.3.3 2.5.7 2.6 7.5.2 8.3 2.1 11.1 8.7 13.3 3.6 1.2 3.9 1.6 3.3 3.9-.8 3.7-1 3.8-3.8 3.8-3.5 0-3.9.7-2.2 4 .8 1.5 1.7 4.1 2.1 5.8l.6 3-2.5-3c-3-3.6-9.3-15.9-12-23.5-2.6-7.5-2.7-18.5-.1-22.3 1-1.5 2-2.6 2.2-2.4.2.2 0 2.4-.5 5zm122.2 32.9c3.3 3.2 6.6 5.8 7.3 5.8 1.9 0 3.4-3.3 3.6-7.9.2-4.9 1.9-5.3 7.9-1.9 8.3 4.7 10.5 17.1 6.5 36.7-2.5 11.9-13.3 34.9-21.1 45-7.3 9.5-18.2 18.1-22.9 18.1-1.4 0-1.3-.7.4-4.9l1.9-5-4.4-2.5c-4.9-2.9-9.2-8.1-7.5-9.1.6-.4 2.3-.4 3.8-.1 2.8.6 6.4 1.2 12.2 2.2 3.5.6 3.6.5 4.8-4 1.9-7.2 1.9-7.1-5-7.2-8-.1-11.6-.7-15.8-2.9-3.2-1.7-3.3-1.8-1.5-3.1 3.3-2.4 9.6-3.7 26.5-5.3.8-.1-.7-1.4-3.5-2.9l-5-2.7-.2-5.8c-.2-5.6-.1-5.9 2.7-6.9l3-1-3.2-2.2c-4-2.6-4.6-5.5-2.2-10.4 1.5-3 1.8-5.8 1.6-14.7-.1-6.1.1-12.6.4-14.5l.6-3.5 1.6 2.5c.9 1.4 4.3 5.1 7.5 8.2zm-95.2 14.1c-.2 2.8-.4 7.2-.6 9.7-.1 2.5-.3 7.2-.4 10.4 0 3.3-.4 5.7-.7 5.3-.9-.9-5.1-18.1-4.7-19.4.2-.6-.5-1.4-1.5-1.7-1.1-.4-2.8-1.6-3.8-2.7-1.7-1.9-1.7-2 .4-2.6 1.2-.3 4.1-1.6 6.4-2.8 2.4-1.3 4.5-2.1 4.7-1.9.3.2.3 2.8.2 5.7zm42.6 20.4c-.3.5-.8 3.9-1.2 7.8-.7 7.4-1.1 8.5-2.6 8.5-.5 0-.9-2.9-.8-6.6.2-5 .7-7.2 2-8.5 1.9-1.9 3.4-2.6 2.6-1.2zm35.3 9.8c.1 1.6.2 3.5.1 4-.1 1.3-6.9.7-7.7-.7-1.2-1.9.7-5.7 3.3-6.6 3.4-1.1 4.1-.6 4.3 3.3zm-49.5 7.5c.1 2.3-.3 3-1.7 3s-1.8-.8-1.8-3.3c0-1.9.3-3.7.7-4.1 1.1-1.1 2.7 1.2 2.8 4.4zm98.7 39.2c14.2 20.9 27.9 39.1 33.7 44.8l3.6 3.5.3-6.7.3-6.7 6.5 3.9c3.5 2.2 6.7 4 7 4 1.3 0 21.2 13.7 25.3 17.5 4.9 4.5 10.1 11.2 10.1 13 0 .7-3.7 4-8.3 7.3-10.3 7.5-17.9 15.1-21.8 21.8-2.8 4.9-3.7 8-2.1 7.1.4-.3 3.2-.8 6.2-1.2 3-.4 5.7-.8 6-1 .5-.3 6.7-1.4 12-2 5.1-.7 10.6-1.5 13-2 1.4-.2 4.1-.7 6-1 1.9-.3 4.2-.8 5.1-1 1.1-.4 1.9.8 3.1 4.7 2 6.3 6.4 26.4 7.3 32.8.3 2.5.8 5.6 1 7 .6 4.3 1.4 11.2 2 18 .3 3.6.8 8.1 1 10 2.9 23.3 2.4 186.8-.6 199.8-.6 2.6-1.3 5.8-1.5 7.2-.3 1.4-2 10.1-3.9 19.5-3.1 15.7-5.7 29.7-6.9 37-1.6 10.3-3.7 22-4 22.2-2.5 2.5-10.9-16.5-20.6-46.5-3.3-10.2-6.2-19.5-6.5-20.6-.3-1.2-2.8-10.9-5.6-21.6-2.8-10.7-5.2-20.4-5.5-21.5-.2-1.1-.6-2.9-.9-4-.2-1.1-.6-2.9-.9-4-.6-2.6-2.6-11.2-7-31.5-2-9.1-4.1-18.5-4.7-21-1.2-5.2-1.7-7.4-2.4-11.4-.3-1.6-2.8-11.9-5.4-23-4.8-19.5-6.5-27.4-7.6-34.6-.3-1.9-.8-4.2-1-5-.2-.8-.6-3.8-1-6.5-.3-2.8-1.2-8.8-2-13.5-.8-4.7-1.6-10.1-1.9-12-1.2-9-1.9-13.6-2.1-15-1.1-6.3-1.6-10-2-13-.4-3.8-.4-4.2-4.1-26.5-2.1-13-3.8-22.4-5.9-32.5-.3-1.4-1-4.8-1.6-7.5-.5-2.8-2.7-11.9-4.9-20.3-2.2-8.5-3.7-15.9-3.3-16.5.3-.7.3-.9-.2-.5-.5.5-2.7-4.7-5-11.5-2.4-6.7-5.2-14.3-6.3-16.9-1.2-2.6-2.2-5.5-2.4-6.5-.2-1-.5-2-.9-2.3-1.5-1.4-8.9-17.9-8.9-20 0-4.5 2-9.9 4.3-11.5 2.7-1.9 2.4-2.2 15.9 17.7zm-137-11.6c1 3.5.1 13-1.5 15.9-.6 1.1-1.2 2.8-1.4 3.9-.2 1-2.1 5.3-4.2 9.5-3.8 7.5-11 30.5-19.2 61.1-2.2 8.5-4.2 16.2-4.4 17-.3 1.3-4 17.3-9.2 39-.8 3.6-1.7 7.6-1.9 9-.3 1.4-.7 3.1-1 3.9-.2.8-1.8 7.6-3.5 15-13.6 61.4-28.3 112.6-42.4 148.1-9.6 24.3-22.2 50.3-23.8 49.3-.6-.3-.7-.1-.3.6 1.3 2.1-16.4 30.9-29.6 48.3-6.1 8-8.6 9.9-6.7 5 4.8-12 14.1-38.4 16.2-45.7 4.6-15.6 5.9-22.3 7.2-35.6l.7-6.6-3 .5c-2.9.4-3.1.2-4.7-5.4-5-17.2-7-38-6.9-71.9 0-19.8 1-48.7 1.8-53.5.2-1.4.7-6.8 1.1-12 .3-5.2.8-10.9 1-12.5.3-1.7.9-7.6 1.5-13.2s1.2-11 1.4-12c.2-1 .7-4.3 1-7.3.4-3 .8-6.6 1.1-8 .2-1.4.9-5.4 1.5-9 .5-3.6 1.2-7.4 1.4-8.5.2-1.1.7-4 1.1-6.5 1.2-8.2.7-7.9 7.5-6.1 4 1 6 2.1 6 3.1 0 1.1.2 1.2.8.2.8-1.2 10.9 2 32.5 10.2 8 3.1 7.7 3.1 7.7.8 0-3.4-5.7-10.7-17.2-21.9-11.2-10.9-15.7-17.5-14.5-20.7.3-.8 4.1-4.1 8.4-7.3 4.3-3.2 8-6.1 8.3-6.4 1.3-1.6 17.9-11.7 20.9-12.8 4.4-1.4 4.4-1.4 3.6.6-.4 1-.9 4.6-1.2 8-.5 5.9-.4 6.1 1.6 5.6 1.3-.3 3.9-3.6 6.8-8.4 3.9-6.7 19.3-28.3 21.2-29.9.3-.3 2.4-2.8 4.6-5.5 2.1-2.8 4.2-5.2 4.5-5.5 1.3-1.2 15.8-18.8 18.2-22.1 3.2-4.4 5.8-4.5 7-.3zm155.5 11c2.6.9 11.3 4.7 19.3 8.6 20.5 9.9 21.6 10.3 62 23.8 45.7 15.2 56.2 20.1 67 30.9 11.3 11.4 17.5 24.5 24 50.6 1 4.3 1.7 8.4 2.4 15.6 1.1 9.7 7.4 21.9 15.5 29.9 10.8 10.7 16.5 21.4 17.7 33.6.4 3.8 2 8.4 4.9 14.3 5.3 10.5 12.5 26.1 12.5 26.9 0 .4.6 1.9 1.4 3.4 1.8 3.4 10.8 29.8 14 40.8 2.5 8.6 8.1 31.4 9 36 .2 1.4.7 3.6 1 5 .3 1.4.8 3.8 1.1 5.5 4 23.2 5.4 31.7 5.9 35 .4 2.2.8 5.3 1.1 7 .3 1.6.7 4.6.9 6.5 2.1 16.3 2.6 20.1 3.1 24.5.3 2.7 1 8.4 1.5 12.5 1.1 9.6 1.9 15.9 2.5 21.2.2 2.4.9 8.6 1.5 13.8.6 5.2 1.3 11.3 1.5 13.5.3 2.2.7 6.3 1.1 9 .5 5 .5 5.1-2.9 6.7-2.7 1.3-3.4 2.2-3 3.7.4 1.5 1.5 2.1 4.7 2.3l4.1.3v5.5c0 5-.2 5.6-2.8 6.8-1.5.7-2.7 2-2.7 2.9 0 1.2-1 1.4-4.9 1.1l-5-.5-1 4.3c-1.8 7.3-1.5 10.1 1.4 10.6 2.1.4 2.5.1 2.5-1.9 0-2.3.3-2.4 4.2-1.9 2.2.3 4.3.8 4.5 1 .9.8-6.2 7.8-10.3 10.2-4.7 2.8-20.4 9.5-20.4 8.8 0-.3-.8-.1-1.7.4-2.8 1.5-9.3 2.4-9.3 1.4 0-.6 2.8-2.1 6.3-3.5l6.2-2.5-.3-6.1c-.4-6-.4-6.1 3-7.7l3.4-1.6V753h-2.8c-2.4 0-3.2-.7-4.7-4.3-1.7-4.1-3.9-11.7-4.7-16.7-.2-1.4-.6-3.5-.9-4.6-.5-2.1-1.4-10.4-1.9-17.4-.2-2.7-.7-3.6-2.4-3.8-1.2-.2-2.2-.9-2.3-1.5-.1-1.4-.1-1.5-2.8-11.7-3.3-12.6-3.4-14.5-.7-19.8 9.4-18.6 7-29.9-10.9-51.2-12.5-14.9-16-21.8-16-31.7 0-4-.2-7.3-.5-7.4-.3-.1-2.7-.3-5.5-.5-2.7-.3-5.3-.8-5.8-1.3s3.2-4.8 8.2-9.7c9.7-9.3 14.4-16.9 15.7-25.2.8-5.2.1-5.3-8-.8-5.7 3.2-8.5 4-12.8 3.7-2.1-.1-2.4-3.1-.5-5 1-1.1 1-1.3 0-.7-1 .5-1.3-.4-1.4-3.6 0-2.4-.2-5-.3-5.8-.2-.8-.6-4.2-1-7.5-.8-7.2-.9-8.1-4.6-26.5-5.8-29.1-5.5-28.1-9.9-31.8-4.7-3.9-8.5-9.7-7.5-11.3.4-.7.3-.9-.3-.6-1.4.9-5.1-12.2-5.8-20.8-.4-3.9-.8-8.1-1-9.5-.2-1.4-.5-4.6-.6-7.2-.2-2.6-.8-4.9-1.4-5.2-.6-.2-4.2.9-7.9 2.5-8.8 3.8-9.6 3.7-9.1-.4.2-1.7.7-5.2 1-7.6.5-4.4.9-6.5 2.5-16.1 2.7-15.5 3.3-27.1 1.5-27.7-1.8-.6-9.7 12.7-18.6 31.1-4.6 9.7-8.8 17.4-9.4 17.3-1.9-.6-5.4-15.6-7-30.2-.3-2.8-.8-6.4-1-8-.2-1.7-.4-4-.4-5.3-.1-1.4-1-2.6-2.3-3.1-2.6-1-6.7-4.7-6.9-6.1-.1-.6-.3-1.5-.4-2-.1-.6-.3-2.4-.4-4-.1-3-.1-3.1-4.8-2.4-2.7.3-8.7 1.7-13.6 3.1-4.8 1.3-10.8 2.6-13.4 2.9l-4.6.3 2.4-2.7c1.3-1.5 4.8-5.1 7.7-8.1 5.1-5.2 7.2-8.2 9.2-13.5.8-2.2.3-3-6.1-8.1-3.8-3.1-16.4-12.7-28-21.4-25.2-18.9-37.5-29.3-44.9-37.7-7.9-9.1-7.8-9.7.7-6.8zM884.2 275c-9.8 9.2-20.8 17.8-45.7 35.5-9.9 7-19.3 13.8-20.8 15.1-1.6 1.3-3.3 2.2-3.8 1.8-.5-.3-.8-.1-.7.5.2.5-1.2 2.2-3 3.8l-3.3 2.8 5.3 5.9c6.1 6.7 6.8 7.7 9.7 13l2.2 3.9-2.3-.6c-1.3-.3-6.1-2.1-10.8-4-9-3.8-14.8-5.1-16.7-3.9-.6.4-1.4 1.9-1.6 3.3-.6 2.8-3.9 9.8-6.7 13.9-4.3 6.4-7.4 17-7.9 26.7-.2 3.4-3.1.4-8.6-8.7-11.5-19-13-21.6-17.2-28.1-2.4-3.8-5.1-6.9-6.3-7.2-2.4-.6-2.4-3-.4 22.8.2 3.8.7 7.9.9 9 .2 1.1.7 4.9 1.1 8.5.3 3.6 1.2 9.9 1.9 14 2 11.2 1.7 35.8-.4 34.6-.3-.2-.7 1.5-.8 3.8-.2 5-4.4 16.8-10.1 28.6-2.3 4.7-4.3 9.5-4.5 10.7-.2 1.2-.5 2.5-.8 2.8-1.2 1.2.4 6.5 2.1 7 2 .6 2 1.7-.1 9.2-.6 2.4-1.5 4.3-1.9 4.3-.4 0-1 1.4-1.4 3-1.3 6.6-12.5 21.2-26.3 34.5l-7.3 7-2.4 14.5c-3.1 18.4-3.6 21.9-4.1 25.3-1.3 9.5-1.7 11.4-2.1 12.9-.3 1.1.8 2.9 3.3 5 10.4 9.3 12.6 11.4 14 14.1.8 1.6 1.1 3.3.6 3.7-.4.5-6.4 1.1-13.3 1.3-12 .5-19 1.9-19 3.8 0 .5 1.2 2.7 2.6 4.8 1.4 2.2 3.1 5.9 3.9 8.4l1.3 4.5-6.3 5.5c-3.4 3.1-7.7 7.8-9.5 10.4-3 4.5-3.2 5.2-2.7 11.3.5 5.9 3.4 14.8 7.3 22.1 1.6 3.1 1.3 5.2-2.7 17.5-1.9 6.1-3.4 9.2-4.1 8.8-.7-.4-.8-.2-.4.5.9 1.4-5.5 14.6-9.4 19.2-2.5 3-3.1 3.3-4.9 2.1-1.1-.6-3.1-1.2-4.4-1.2-2.6 0-3.9 2.1-13.2 21-5.5 11.2-6.4 14.7-4.1 15.6 2.2.9 2 4-.8 10l-2.4 5.1-5.7.2c-3.2.1-7.4.4-9.4.7-7 1.1-7.4 1-6.6-2.9.4-1.7 2.3-8.8 4.3-15.6 2.5-8.8 3.2-12.6 2.4-12.9-.7-.2-1.2-1.2-1.2-2.1 0-3.9 11.1-31.9 13.2-33.2.7-.5 1-.9.6-.9-1.1 0 2.2-7.8 10.5-24.7 4.1-8.4 7.7-15 8.1-14.8.3.3.4.2.1-.1-.2-.4 1.3-4.1 3.4-8.3 2.9-5.7 3.9-8.9 4-13.1.1-3 .4-7.3.6-9.5.2-2.2.7-6.9 1-10.5 1.6-17.4 7.1-26.5 24.5-40.6 7.2-5.8 7-5.5 8.5-16.9 1-8.8 2.2-27.7 3-47.1.2-5.4.7-7.1 4.8-13.4 6.8-10.6 12-24.3 15.2-39.5 1.3-6.7 4.9-18.3 7.1-23.2 2.2-5.1 8.5-14.4 12.1-18.1 1-1 1.2-4.6.8-15-.7-18.3-.7-50.1-.1-58.2 1.2-13.7 4.2-28.4 5.7-27.5.5.4.6-.1.3-.9-1.4-3.6 12.9-23.8 15.6-22.1.6.4.9.1.8-.6-.6-2.8 18.5-13.3 39.7-21.7 5.5-2.2 17.4-6.7 26.5-10.1 9.1-3.4 17.9-6.8 19.5-7.5 1.7-.8 6.4-2.4 10.5-3.5 4.1-1.2 15.2-4.8 24.5-8.1 9.4-3.2 18.4-5.9 20-5.9 2.9 0 2.7.3-5.3 7.9zm155.1-4.5c.4.8.2 1.7-.4 2-.5.4-.6 1.2-.2 1.8 1.1 1.7 1 4-.2 5.6-.7 1.1-.7 1.3.3.7.8-.5 1.2 0 1.2 1.6 0 1.3-.6 3-1.2 3.7-1 1.1-1 1.3 0 .7 1.5-.9 1.5-1.9 1.6 73.4.2 64 0 70.4-1.7 69.3-.9-.5-.9-.3-.1.8.7.8 1.1 2.6.9 4.2-.2 1.5-.6 8-1 14.5-.3 6.4-.8 12.8-1 14.2-.2 1.4-.6 4.5-.9 7-1.3 10.4-3.6 20.9-5.6 26.3-2.4 6.4-6 9.8-8.4 7.8-1.4-1.2-2.9-9.6-3-16.4 0-2-.4-3.7-.9-3.7s-.3-.8.4-1.7c.8-.9.9-1.4.3-1-.8.5-1.4-1.4-1.9-6.1-.4-3.7-.8-7.4-1-8.2-.2-.8-.6-3.8-.9-6.5-.9-6.8-1.6-11.5-2.2-14.5-.2-1.4-.7-4.1-1-6-.3-1.9-1.4-8.1-2.5-13.8-1-5.6-1.8-10.6-1.7-11 0-.4-.2-1.4-.5-2.2-.4-.8-2.3-7.1-4.2-14-3-10.4-6.9-20.9-13.7-37-.9-2.1-.5-3.8 2.1-10 3.9-9.2 5-10.8 8.5-11.4 2.4-.4 2.9 0 5 4.8 2.6 5.8 9 13.6 11.2 13.6.8 0 1.4-.2 1.4-.4 0-.5-6.1-11.4-8.3-14.7-.9-1.4-1.4-2.9-1-3.3.5-.4.3-.6-.3-.4-1.8.5-21.4-24.5-21.4-27.2 0-.4 2.8-3.1 6.3-6 3.4-2.8 11.4-10 17.7-15.9 14.3-13.4 17.5-16.2 22.4-19.5 4.5-3 5.2-3.1 5.9-1.1zm-104.6 4.7c4.1 4.7 24.7 22 36.1 30.3 6.6 4.9 8 6.4 7.5 8-.8 2.7-5.4 9.5-12.3 18-9.3 11.5-14.2 19.3-16.9 26.7-2 5.3 1.7 3.1 5.6-3.3 2.1-3.4 4.3-6.6 4.9-7.3.5-.6 1.3-1.9 1.7-2.9.8-2.2 3.4-2.2 7.4.3 3.9 2.3 5.4 7.1 4.8 15.1-.4 5.4-3.8 20.9-4.9 22.8-.6.9-1.2 6.8-2.1 19.6-.3 4.4-.7 10.7-1 14-.5 5.7-.7 8.7-2.1 29.4-.3 4.7-.7 10.4-.9 12.6-.2 2.2-.3 6.4-.4 9.3-.1 3.9-.4 5.1-1.3 4.6-1-.5-1-.4-.1.6 1 1.1 1 1.7 0 2.9s-.9 1.3.2.6c1-.6 1.2-.4.7.4-.5.7-1 6.3-1.2 12.4-.7 15.4-.9 18.2-1.7 17.9-.4-.1-1.1-.2-1.7-.2-2.2 0-13.7-42.4-17.4-64-1.8-10.5-2.1-13-3.1-21-.4-3-.8-6.6-1-8-.2-1.4-.7-6.1-1-10.5-.4-4.4-.9-9.8-1.1-11.9-1.5-15.5-2.7-118.6-1.4-118.6.3 0 1.5 1 2.7 2.2zm80.7.5c.9.9-5.5 7.4-6.6 6.7-.5-.3-.7-.1-.6.4.4 1.1-5.6 6.2-7.2 6.2-1.7 0-.5-5.8 1.9-9 2.4-3.4 10.6-6.2 12.5-4.3zm43.6 143c.2 30.2.5 38.3 1 38.3.7 0 .3 7-.4 7.7-.3.4-.2 1.1.3 1.7.6.6 1.1 6.3 1.3 12.6.2 9.1-.1 12-1.3 14-.9 1.4-2.9 4.7-4.4 7.5-2.6 4.6-10.5 16.7-16.6 25.5-7.1 10.3-25 31.6-39.1 46.5-3.7 3.9-7.6 8.2-8.8 9.5-1.2 1.4-6.9 7.4-12.8 13.4-9.6 9.8-10.5 11-8.8 12 7.1 4.2 9.4 8.9 7.7 15.3-1.5 5.4-3.1 7.3-6.7 7.8-2.6.3-3.3-.1-4.4-2.3-1.2-2.7-1.5-15.5-.4-17.3 1.1-1.8-2.2-.9-3.9 1.1-.9 1.1-1.5 2-1.4 2 .2 0-.1 3.5-.7 7.7-.6 4.3-1.1 13.8-1.1 21 0 7.3-.2 13.3-.5 13.3-1.6-.1-3.2-2.1-3.5-4.6-.9-7.3-1.8-23.8-1.9-33.4-.1-9.3.1-10.6 1.9-12.1 1.1-.9 5.6-4.5 10-8 17.7-13.9 41.8-40.8 50.7-56.5 1.8-3.3 3.4-5.1 4.1-4.7.7.3.9.3.5-.1-.3-.4 2.2-6.6 5.7-13.8 3.5-7.1 7.6-16.5 9.1-20.8 1.6-4.3 3.2-7.6 3.8-7.3.5.3.6.1.3-.4-.4-.6 0-3.4.9-6.4.9-2.9 1.7-6 2-6.8.2-.9 1-4.1 1.8-7.1s1.7-6.6 2-8c.4-2.3 1.8-8.8 3.1-15 .2-1.3.7-4.2 1.1-6.5.3-2.2.8-4.7.9-5.5.2-.8.4-2.5.4-3.8.1-1.3.4-2.1.9-1.9.4.3.7-1.8.8-4.6 0-5.2 1-16.6 2.1-24.2.5-3.6 1.6-5.4 3.5-5.5.4 0 .8 8.9.8 19.7zm-132.9-4.9c0 2.6.2 5.6.4 6.7.2 1.1.6 5.1.9 9 .3 3.8.8 8.1 1 9.5.3 1.4.7 4.2 1 6.3 1.1 7 6.6 27.6 10.7 40 3.4 10.3 15.7 41.7 20.4 52.2 1.5 3.3 3.6 8.1 8.5 19.5 1.8 4.1 3.6 8 4.1 8.6.6.8.3 1.3-1.1 1.7-1.5.4-3.2-.9-7-5.1-2.8-3.1-4.8-6.2-4.5-7 .2-.7.1-1-.5-.7-2.7 1.7-19-28.7-25.4-47.5-3.3-9.9-8.9-32.8-10-41.5-.3-2.2-.8-6.3-1.2-9-.3-2.8-.8-5.3-1.1-5.8-.2-.4.2-.7.9-.7 1.1 0 1.1-.2 0-.9-1-.6-1.5-5.8-1.9-20.2l-.6-19.4 2.7-.3c2.5-.2 2.6.1 2.7 4.6zM746 577c2.5 0 3.8 2.6 6.7 13 2.6 9.6 2.7 10 1.3 10-1.6 0-6.3-7.8-5.4-9.1.4-.7.3-1-.4-.5-.6.3-2.3-1.8-4.1-5.1-3.5-6.3-4.1-9.9-1.5-8.9.9.3 2.4.6 3.4.6zm-26.7 10.9c3.3 1.3 13.4 18.4 11.2 18.9-.9.2-2.3-.2-3.1-.9-1.6-1.3-12.4-17.2-12.4-18.3 0-.9 1.5-.8 4.3.3zm509.7 8c2.2 3.8 4 7.2 4 7.5 0 .3 1.1 3 2.5 6.1 2.3 4.9 10.9 29.6 12 34.2.3 1 2.5 9.4 4.9 18.7 2.5 9.3 4.8 18.1 5 19.5.3 1.4 2.6 12.3 5.1 24.1 7.3 34.4 6.9 32.1 4.8 31.3-1-.3-2.4-1.1-3.1-1.6-1.6-1.3-5.9-10.6-7.1-15.5-.5-2-1.9-7.4-3-11.9s-2.2-9.2-2.5-10.5c-.2-1.3-1.2-5.7-2.1-9.8-.9-4.1-1.8-8.6-2.1-10-.3-1.4-.9-4.1-1.5-6.1-.5-2-1.1-4.9-1.3-6.5-.6-4.2-6.3-23.9-8.7-29.8-2.9-7.2-6.8-14.7-9.1-17.2-1.8-2.1-1.9-6.3-.2-16.7.3-2.2-.4-3.8-3.1-6.9-4.2-4.9-4.3-5.8-1-5.8 1.9 0 3.2 1.3 6.5 6.9zm-159.4 18.6c1.8 4.5 1.8 8.5-.2 13.5-1.4 3.5-2 4-4.8 4-2.7 0-7.6-1.9-5.1-2 .6 0 .4-.4-.4-.9-2-1.3-2.3-9.2-.5-12.6 3.3-6.4 8.7-7.4 11-2zm-341.6 23c0 .8-1.5 2.5-3.2 3.7-2.2 1.5-3.4 3.3-3.7 5.3-.4 3.4-3.6 12.3-7.5 20.8-1.4 3.2-2.6 5.9-2.6 6.1 0 2.8-35.3 74.1-58.5 118.1-2.9 5.5-7.6 14.5-10.5 20-7.7 14.7-7.6 14.5-8.5 13.7-.5-.4-.5-.2-.2.4.6 1-4.6 11.9-8.3 17.4-.5.8-3.7 6.9-7.1 13.5-3.4 6.6-6.5 12.4-6.9 13-.4.5-2.9 5-5.5 10-8.1 15.3-11.7 21.9-13.5 25-1 1.6-4.1 7.5-7 13-2.9 5.5-5.6 10.4-6 10.9-1.1 1.1-7.6-1.4-10-3.9l-2-2.2 10.6-23.4c5.8-12.9 11.4-25 12.4-26.9 1-1.9 4.9-9.6 8.6-17 3.7-7.3 7.9-15.7 9.5-18.5 1.5-2.7 5.2-9.6 8.1-15.2 2.9-5.6 5.6-9.9 6.2-9.6.5.3.6.1.2-.5-.7-1.2 3.5-9.6 16.9-33.7 9.4-16.8 11.9-21.4 16.8-30.5 2.2-4.1 4.8-8.6 5.7-10 .9-1.4 3.9-6.8 6.7-12 2.7-5.2 9.5-17.8 15-28 14-25.9 18.3-34 24.3-45.7 5.1-9.9 5.4-10.2 10.4-12.2 9.3-3.6 9.6-3.6 9.6-1.6zm33 63.1c0 1.1-8.3 10.7-13.5 15.7-2.7 2.6-8.6 7.1-13 10-8 5.3-20.2 11.3-21.1 10.4-1-1 1.9-9.3 4.4-12.7 6.2-8.3 19.7-17.2 34.2-22.6 3.7-1.3 9-1.8 9-.8zm373.1 10.1c0 1 .2 2.9.4 4.3.8 5 1.7 10.6 2.1 13.9.3 1.9 2 9.8 4 17.5 1.9 7.7 3.2 14.6 2.9 15.4-.2.7-.1 1.1.3.8 1.4-.9 5.2 16.7 5.7 26.4 2 40.9 2.6 49 4 57 .1.8.6 3.5 1 6 .3 2.5.8 5.2 1.1 6.1.4 1.4-.5 1.5-7 1.1-8.6-.5-8.1-1.1-9.1 11.3-.3 4.4-.8 9.6-1 11.5-.2 1.9-.7 7.1-1 11.5-.8 10.7-1.5 18-2 23.5-.3 2.5-.7 7.9-1 12-.3 4.1-.7 10-1 13-.3 3-.7 9.3-1.1 14-.3 4.7-.7 10.5-.9 13-.2 2.5-.6 8.1-.9 12.5-.4 4.4-.9 10-1.1 12.5-.3 2.5-.7 8.1-1 12.5-.4 4.4-.8 9.8-.9 12-.2 2.2-.7 8-1.1 13-.3 4.9-.8 10.1-1 11.5-.2 1.4-.6 6.3-1 11-.6 8.7-.9 10.4-2.5 20-.5 3-1.2 7.1-1.5 9-.3 1.9-1.2 6.9-2 11s-1.7 9.1-2 11c-.3 1.9-1.9 10.7-3.5 19.5-1.5 8.8-3.1 17.8-3.4 20-.4 2.3-.8 5.2-1.1 6.5-.3 1.3-.7 4.2-1.1 6.5-.3 2.2-.7 4.1-.9 4.3-.2.2.3 1.9 1.1 3.7.8 1.9 1.4 6.7 1.4 10.9 0 5.3.6 8.8 2 12.2 1.2 2.8 2.3 7.9 2.6 12.3.2 4.2.7 9.4.9 11.6 2.5 23.5 2.6 103.7 0 136.5-.1 1.9-.5 7.8-.9 13-.4 5.3-.8 10.5-1 11.5-.2 1.1-.7 5.6-1 10-.4 4.4-.9 9.1-1.1 10.5-.2 1.4-.6 4.7-.9 7.5-.4 2.7-1.1 8.4-1.7 12.5-.5 4.1-1.2 9.1-1.5 11-.2 1.9-.7 4.8-.9 6.5-4.4 27.7-4.6 28.6-6 35.5-.2 1.4-.7 3.8-1 5.5-.2 1.6-1.6 8.6-3 15.5s-2.8 13.7-3 15.2c-1.3 7.3-12.7 54.3-16.1 66.5-.4 1.4-1.1 2-1.8 1.6-.6-.4-.5 0 .2.9.9 1.1 1 1.8.2 2.3-.5.3-1 1.5-1 2.6 0 2.9-6.3 24.3-7.2 24.7-.5.2-.6.7-.4 1.1.3.4-.1 2.9-.9 5.6-1.9 6.3-1.9 7.2.4 8 1.4.4 1.9 1.3 1.6 3.3-.2 1.5-.4 2.7-.5 2.7-.1 0-.6 5.9-1.5 21-.4 6.6-1 12.3-1.3 12.6-2.4 2.3-11.2-9.4-11.2-14.8 0-1-.4-2.3-.9-2.9-1-1.1-4.4-11.6-6.6-20.4-5.2-21.3-10.3-31.7-21.1-43-3-3.1-5.2-5.9-5-6.1.2-.2.6-3.3 1-6.9.3-3.6 1.3-9.1 2.1-12.3.8-3.2 1.5-6 1.5-6.3 0-.3 2.1-.4 4.6-.2l4.6.3 2-5.5c1.1-3 2.2-6.2 2.5-7 .8-2.1.9-2.6 2.2-11 2-13.8 2.1-14.3 3.6-50.5.9-19.3 1.9-32.1 3.1-39 1.2-6.8 4.7-18.5 5.3-18 .4.2.7-.5.7-1.7-.1-1.2.5-2.3 1.3-2.6 1.1-.4 1.2 1 .7 7.4-.6 7.3-1.2 11.9-1.6 11.9-.1 0-.3 2.5-.4 5.5-.2 3-.7 10.2-1.1 16-1.9 25.6-.4 42 5.1 59.2.9 2.7 2 4.8 2.5 4.8 1.1 0 1.1.3 1.4-10.5.2-9.4 1.4-29.2 1.9-33.5.2-1.4.7-5.9 1.1-10 .4-4.1.9-8.4 1.1-9.5.2-1.1.4-3.5.6-5.2.1-1.8.5-3.3.8-3.3.4 0 .6-.9.5-2-.2-2.9 1-12.1 3.5-27 .5-3 1.2-7.7 1.5-10.4.4-2.8.8-5.2 1-5.6.2-.3 1.5-7.5 2.9-16s2.8-16.6 3.1-18c.3-1.4.7-3.9.9-5.5.3-1.7 1.4-8.2 2.5-14.5 1.1-6.3 2.2-13.5 2.6-16 .3-2.5 1-7 1.5-10s1.1-7.8 1.5-10.5c1.3-11.4 1.7-14.1 2-16.5 1-6.6 2.3-23.9 3.1-41.3.5-12.4.8-14.2 3-17.4 1.5-2.2 2.4-5 2.4-7.3 0-5.7-5.1-14.7-13.1-22.9l-7.1-7.4.6-6.9c.3-3.8.8-7.3 1-7.7.3-.4.7-2.1 1-3.7.3-1.6 1.5-7 2.6-11.9 2.9-13 2.7-15.9-1.1-18.7-2.9-2.2-3-2.6-2.6-7.8.3-3 2.3-10.7 4.5-17 7.3-21.1 11.1-35.3 16.8-63.5.8-3.7 4.3-26 4.9-30.5.3-2.5.7-5.6 1-7 .2-1.4.7-5.7 1-9.5.4-3.9.8-8.4 1-10 .2-1.7.7-5.9.9-9.5 1.8-21.1 2.2-27.9 3.1-46 .6-10.5.9-11.7 3-13.8l2.4-2.2-.5-24.8c-.3-13.6-.6-28.9-.7-34.1l-.2-9.5 6.6-5c6.9-5.3 6.8-5 6-11.9-.1-.4-1.8-.7-3.8-.7-2.1 0-4.4-.4-5.2-.9-2.1-1.3-.6-10.9 3.8-23.8 3.3-9.7 3.7-11.4 2.4-12.5-1.4-1.1-1.3-3.8.2-11.8 1.8-9.4 2.6-40.7 1.3-52.5-.4-3.3-1.4-9.8-2.4-14.3-1.6-8.2-1.6-8.4.3-11 1.8-2.5 5.7-5.1 7.6-5.2.4 0 .7.8.8 1.7zm-61.3 26c1.7 2.3 1.5 7.5-.4 12.3-.9 2.2-1.7 4-1.8 4.1 0 0-2 .2-4.4.5-3.9.5-4.3.3-5.3-2.3-1.5-3.7-1.2-11.6.6-15.9l1.4-3.4 4.3 1.5c2.4.9 4.9 2.3 5.6 3.2zm-368.2 18.5c-.5 23.1-.7 24.7-3.2 33.7-2.4 8.4-7 14.5-12.1 15.7-2.3.6-21-4.9-23.9-7.1-1.5-1-1-2.4 4.6-12.6 15.5-28 24.3-41.9 30.4-48.2 2-2 3.8-3.7 4.1-3.7.3 0 .3 10 .1 22.2zm263.2-18.7c1.9 3.6 2.7 13.3 1.4 16.6-1.1 2.9-5.3 4.1-9 2.8-4-1.5-5.5-14.7-2.3-20.7 1.6-3.1 8-2.2 9.9 1.3zm309.4 10.5c1.3 3.6 1.2 16.7-.2 22-1.3 5-5.6 11.4-7.1 10.5-.5-.4-.9-.1-.9.4 0 1.7-1.9 1.3-5.2-1-2.9-2.1-3-2.3-2.4-8.4.3-3.5 1-7.4 1.4-8.7.5-1.2.8-5.5.8-9.3-.1-3.9.2-7.2.6-7.5.3-.3 3.2-.5 6.4-.5 5.1 0 5.8.2 6.6 2.5zM431 752.3c1.9.2 5.5.7 8 1.1 2.5.4 5.6.9 7 1.1 5.8.9 9.6 1.6 11.1 2.1 1 .2 3 .7 4.5.9 10.1 1.6 48.8 11.5 49.2 12.7.2.4.8.6 1.3.2.5-.3 3.5.2 6.7 1.2 18.4 5.4 69.4 16.6 76 16.7.6 0 1.2.6 1.2 1.3 0 1.9-3.2 8.4-4.2 8.4-.4 0-.8.5-.8 1.1 0 2.2-7.4 10.1-13.9 14.7-9.9 7.2-34.6 19.2-39.8 19.5-.7 0-1.3.4-1.3.9 0 .4-.5.8-1.1.8-.6 0-3.9 1.3-7.2 2.9-3.4 1.5-7.3 3.2-8.7 3.6-2.6.8-7.7 4.7-14.6 11.2-4.4 4.1-14.3 12.9-23.9 21.3-3.3 2.9-7.9 6.5-10.1 8.1l-4.2 2.9-9.3-13.8c-19.6-29-32.2-44.6-51.8-64.2-14.1-14.1-29.1-26-42.9-34.3-4.4-2.6-8.2-4.7-8.6-4.7-1.1 0-.6 7.5.9 16.6 3.8 21.7 14.6 44.9 33.8 72.4 6.4 9.2 16.8 23.2 17.7 24 .9.7 22.7 30.2 28.4 38.2 4.5 6.4 4.9 9.7.8 6-1.6-1.4-9.2-10.3-21.1-24.7-44.1-53.7-66.7-92.4-71.6-123-.6-4-.9-17.5-.3-18 .4-.4 22.4-5.2 26.8-5.9 1.9-.3 6.2-.8 9.5-1.2 3.3-.3 6.2-.8 6.3-.9.5-.5 41.7.3 46.2.8zm525.8 13.1c.6 1.3 6.4 10.4 12.9 20.2 10.8 16.3 17.6 26.3 36 53.1 6.2 9.1 6.2 9.2 3.5 9.2-1.5 0-3.6.1-4.7.2-3.8.3-4.3-.1-11.3-8.9-16.4-20.7-34.4-48.7-32.5-50.6.4-.3.2-.6-.4-.6-1.7 0-6.6-13-7.8-20.8-.6-3.7-.5-4.2 1.3-4.2 1 0 2.4 1.1 3 2.4zm386.6 31.5c-.2 5.3-.6 10.3-.9 11.1-.2.8-.7 4.4-1 8-.4 3.6-.8 6.7-1 7-.2.3-.6 2.6-1 5-2 13.3-9.2 38.1-14.5 49.5-8.2 17.5-20 29.3-31.3 31.2-3 .4-3.8.1-5.2-2-2.6-4.1-2.3-11.2 1.4-27.3 3.7-16.5 1.6-27.3-7.2-35.8-4.5-4.4-5.1-4-6.2 3.4-1.2 8.5-3.8 17.3-5.7 19.2-1 1-1.8 2.2-1.8 2.7 0 1-3.7 1.8-6.2 1.3-3.9-.8-5.6-35.2-2.3-47.2 1.6-6 10-24.2 14.6-31.7 2.4-3.8 3.3-3.8 17.4.7 9.6 3 13 3.7 21.1 4.6 4.4.5 5.9.2 11-2.5 5.8-3.1 15.7-6.8 18.1-6.8.9 0 1.1 2.4.7 9.6zm-168-3.1c.3.5.8 2.2 1.1 3.9.8 4.6 7.8 36.8 12 54.8.8 3.3 1.6 7.3 1.9 9 .3 1.6 2.6 12.4 5.2 24 8.8 40.2 9.1 41.7 8.1 45.5-4.9 19.1-14.7 44-26.7 68.5-12 24.4-22 40.7-32 52.2-2.9 3.2-10.7 9.3-12.1 9.3-1.2 0 0-9.9 2.2-18 3.9-14.6 14.5-33.8 29.9-54.5 22.7-30.5 30.9-46.8 31.6-63 .2-4.9-.2-9.7-1.1-12.5-6.5-21.3-17.3-62.5-19-73-.3-1.9-.8-4.2-1-5-.2-.8-.7-3.8-1-6.5-.3-2.8-.8-6.6-1-8.5-.3-1.9-.8-8.8-1.1-15.3-.5-10.1-.4-11.7.9-11.7.9 0 1.8.4 2.1.8zm-501.3 32.4c1.6 9.5 1.8 11.5 1.9 22.8.1 18.3-3.8 28.5-12.8 33.2-5 2.6-5.4 2.7-8.9 1.4-3.2-1-2.9-3.9 1.1-12.1 1.9-3.9 4.4-9.2 5.6-12 1.5-3.7 2.3-4.6 3-3.6.5.9.8-1.5.7-6.2-.1-4.2-.5-7.7-.8-7.7-.7 0-1.8-6.5-2.4-13.2-.1-1.6.8-4.1 2.3-6.2 2-2.9 3.2-3.6 5.8-3.6h3.2l1.3 7.2zm137.6-.2c5.3 9.7 13.3 22.9 14.2 23.5 1.4.8 2.5-1.5 2.8-6 .2-2.2.5-5.1.7-6.5.3-1.4.5-3.7.5-5.2.2-4.4 3.3-2.8 5.5 2.8 6.9 18.6 8.2 34.7 3.3 44.6-1.5 3-3.6 6.3-4.6 7.2-1.9 1.7-2 1.7-3.1-2.1-.7-2.1-1.4-8.5-1.6-14.2-.2-5.7-.6-10.6-.9-10.9-.2-.3-4-.6-8.2-.6l-7.8-.2-1.2-3.5c-1.8-5.4-3.3-18.1-3.3-27.1 0-4.5.2-7.9.4-7.7.1.2 1.7 2.9 3.3 5.9zm-213.5.1c-.6 6.7-5 19.1-6.5 18.2-.6-.3-.7-.1-.3.6.4.6.2 2.7-.4 4.6-.8 2.6-1.5 3.2-2.8 2.8-2.7-1-3.1-2.3-2.8-8.3.3-5.9 4.2-15.3 5.9-14.3.6.3.7.1.3-.5-.9-1.5 1.4-6 3.3-6.5 2.9-.8 3.6-.1 3.3 3.4zm315.7-.5c1.1 1.5 1.8 3.1 1.4 3.7-.3.5-.1.7.4.4.6-.4 3.1 1.9 5.6 5.1 2.5 3.1 6.5 7.7 8.8 10.2 5.4 5.8 19.9 25.2 23.3 31 6.9 11.9 15.7 34.2 14.1 35.8-1 1-4.2-3.3-7.6-10-4-7.8-14.5-24.8-24.3-39.1-4.5-6.5-8.8-12.9-9.6-14.1-2.2-3.2-7.4-10-8.1-10.6-.3-.3-2.9-3.8-5.7-7.8-5-6.9-5.1-7.2-2.8-7.2 1.5 0 3.3 1.1 4.5 2.6zM894 842.4c4.7 4 11 10.2 14.2 13.7 3.1 3.5 7.2 8.2 9.2 10.4 9.2 10.1 5.6 10.2-5.7.2-4.5-3.9-11.1-9.7-14.6-12.7-8.7-7.4-16.1-19-12.3-19 .4 0 4.5 3.3 9.2 7.4zm-252.7.6c1.2 1.1-11.6 24.8-14.1 26.4-.6.3-1.5-.1-2.2-.9-.9-1.1-.3-3.4 3.2-11.2 2.5-5.4 5.1-11.3 5.9-13.1 1.2-2.8 1.8-3.2 3.9-2.7 1.4.4 2.9 1 3.3 1.5zm.7 43c0-1 .3-1.1 1.1-.3 1.4 1.4.2 5.6-1.4 4.7-.7-.4-.9-.4-.5.1.4.4.3 1.6-.3 2.7-1.4 2.5-8.2 2.2-8.7-.4-.6-3.2 7.4-9 9-6.5.6.9.8.8.8-.3zm-27.2 8.2c3.1 3.2 4.2 5 4.2 7.3 0 3.9-1 7.6-1.9 7.1-.4-.3-.8.4-.8 1.5-.3 3.2-6.3 11.9-8.3 11.9-4 0-4.7-7.5-1.6-16.5 1.3-3.7 1.3-4.2-.5-6.1-2.1-2.2-2.4-4.6-1-7.2 1.7-3.2 5.3-2.4 9.9 2zm-71 14.6c.4 2.6-.1 2.6 4.7.2 3.8-1.9 4.1-1.9 5.2-.3.7.9 1.3 2.3 1.3 3 0 .9.7.6 1.9-.6 2.1-2.1 6.1-1.8 6.1.4 0 1.7-2.5 8.6-5.7 16.2-3 7-6 8.6-9.5 5.1-1.5-1.5-2.3-1.7-3.1-.9-1.9 1.9-6.5 1.3-7.2-.9-.5-1.6-1.2-1.9-3.3-1.4-1.5.4-3.5 1.1-4.4 1.5-1.3.7-1.8.3-2.3-2.1-.8-3.5-2.1-3.9-3-1-.3 1.1-.9 2-1.3 2.1-.4 0-2 .3-3.6.5-2.8.5-2.9.4-2.3-3.1.8-4.8 4-11.1 8-15.8 3.7-4.2 6.1-4.2 7.2 0l.6 2.6 2.5-3.4c3.8-5.2 7.6-6.1 8.2-2.1zm58 14.4c.7.7 1.2 2.7 1.2 4.5 0 3.8 1 4.1 5.5 1.3 2.9-1.8 3.4-1.8 4.5-.5 1.2 1.5 1.1 2.7-.5 11.5-.7 3.5-.7 3.5 1 1.2.9-1.2 2.1-1.9 2.7-1.6.6.4.8.3.5-.3-1.2-1.8 2.3-5.3 5.3-5.3 2.4 0 2.9.5 3.5 3.2 1 4.4 1.6 5.3 2.5 3.7 2-3.1 8-.8 8 3.1 0 2.4 2.5 5.6 3.4 4.2.4-.7 2.1-1.2 3.7-1.2 2.5 0 3.3.6 4.4 3.4 1.2 2.8 1.8 3.3 3.9 2.9 2.2-.5 2.7 0 4.2 3.6 1.3 3.2 2.1 4.1 4 4.1 2.1 0 2.4.4 2.4 4 0 3.9.6 4.5 3.8 4.1 1.5-.2 1.5-.5-.4 6-2.9 10-5.4 14.7-7.9 15.1-2 .4-2.4 0-3-3-.5-3-.9-3.3-3.1-2.9-1.7.3-2.4 0-2.4-1.1 0-.9-2.5-3.9-5.5-6.7-4.2-4.1-6.1-5.1-8.4-5-3.5.2-5.6-2.9-4.9-6.9.6-2.9-.4-3.2-4.6-1.6-1.9.7-2.6.6-2.6-.3 0-.8-.4-.7-1 .3-.5.8-1.1 1.2-1.4.9-.5-.5-1.4-4.2-1.5-6.6-.1-1-.9-1-7.6 0-.5.1-1.1-1.9-1.3-4.6-.2-2.6-.7-4.7-1.3-4.7-.5 0-.9.4-.9.9 0 1-2.6 2.2-5.7 2.6-2.2.3-2.4 0-3.7-5.8-.5-2.2-1-2.6-1.9-1.8-2.3 1.9-7.7 2.3-8.3.6-.8-2.1 1.6-7.6 2.9-6.8.5.3.7.1.4-.4-.4-.6.7-3.7 2.4-6.9 4.7-8.8 5.4-9.5 7.7-7.2zM538 938c1.4.5 5 1.6 8.1 2.5 4.9 1.5 5.7 2.1 6.9 5.3l1.3 3.7.9-2.7c1.1-3.3 3.5-3.2 14.9.8 6.7 2.3 8 3.1 8.9 5.7.9 2.8.4 3.9-8.7 17.9-5.4 8.1-10.2 15.6-10.8 16.5-.5 1-3.2 5.1-6 9.3l-5 7.6-5.5-2.1c-7.3-2.8-7.3-4.4 0-20 4.9-10.4 4.6-12.2-1.7-15.9-2.9-1.6-4.9-3.4-4.6-3.9.3-.6.1-.7-.5-.3-1.4.8-11-5.3-15.8-10.1-4.1-4.1-7.8-11.3-6.4-12.7 2.8-2.8 17.6-3.8 24-1.6zm-91.4 24.4l3 16.4-29.4-.3c-16.2-.2-29.7-.6-29.9-.9-.9-.9 8.3-9.3 16-14.7 13.4-9.4 28.6-16.8 34.7-16.9 2.5 0 2.6.3 5.6 16.4zm537.7-7.3c-.7 12-1.5 21.7-1.8 23.4-.2 1.1-.4 3.7-.4 5.8-.1 2.1-.4 3.6-.8 3.4-.5-.3-.8 2.3-.9 5.6 0 5.9-1.3 18.6-1.9 19.7-.1.3-.6 3.6-1 7.5-.4 3.8-.8 7.2-1 7.5-.1.3-.6 3.6-.9 7.5-.4 3.8-.9 7.7-1.1 8.5-.4 1.4-.8 4.5-2 14.2-.3 2.4-1 7.4-1.5 11.3-1.1 8.5-1.8 14.1-2.5 22-.3 3.3-.7 7.3-1 9-1.6 12.1-2.1 39.3-1.1 57 .2 4.4.1 10-.4 12.5-.4 2.5-1.1 6.3-1.4 8.5-1.1 6.9-6.5 23.7-9.9 30.3-3.8 7.6-6 9.2-8.9 6.5-2.9-2.6-1.9-6.8 4.6-19.4 8.6-16.9 9.2-23.9 2.5-31.6-2.1-2.5-2.7-4-2.4-6.5.2-1.8.6-7.4 1-12.3.3-5 .8-11.3 1-14 .2-2.8.7-9.1 1-14 .7-10.8 1.4-20.2 2-27 .2-2.8.7-8.6 1-13 .3-4.4.8-9.6 1-11.5.2-1.9.7-6.4 1.1-10 .3-3.6 1.1-6.8 1.8-7.2.8-.6.7-.8-.2-.8-.7 0-1-.5-.6-1.1.4-.7.8-3.5 1-6.3.2-4.6.6-7.2 1.9-14.6.2-1.4.7-4.3 1-6.5.7-5.2 1.1-7.3 3.1-16.5.3-1.4.7-3.9 1-5.5 1.5-8.8 7.6-28.2 13-41.3 1.8-4.5 4-5.2 3.7-1.1zM602 960c14.1 5.7 32.5 16.3 31.5 18.1-.4.5 0 .7.7.4 1.9-.7 10.4 6.9 13.4 12.1 2.8 4.7 3.7 9.1 2.1 10.1-1 .6-17.2.7-19.7 0-.8-.2-3.3-.7-5.5-1.1-15.2-2.9-37.7-9.5-38.2-11.2-.5-1.7 3.4-5.7 4.8-4.8.7.4.9.3.5-.4-.3-.6.5-1.9 1.8-2.9 2.8-2.2 2.7-3.9-.3-13.7-1.1-3.7-2.1-7.6-2.1-8.6 0-2.1 1.7-1.8 11 2zm-210 45.2c4 7.8 16.5 26.1 25 36.8 8.1 10.1 41.1 43.9 55.3 56.6 4.2 3.8 7.1 7.3 7.7 9.3.8 2.9.7 3.1-1.8 3.1-2.8-.1-3.2-.4-32.1-27.8-33.1-31.5-50.9-54.6-55.7-72.4-1.3-5.1-1.8-9.8-1-9.8.2 0 1.4 1.9 2.6 4.2zm444 5.2c1.8 4 7.2 24.2 9.1 34 4.1 21 6.3 39.1 5.2 42.3-.3.6-1.5 1.4-2.7 1.7-2 .5-2.3 1.1-2.1 4.4.3 3.7 1.4 12.9 2 16.3 1 5.4 9.4 36.8 12.4 46.4 1 3 4.5 19.9 5.6 26.6.5 3.1.2 3.7-1.6 4.2s-2.7-.8-7.4-10.6c-7.3-15.3-11.7-29.6-14.9-48.3-2.1-12.2-2.4-15-4.1-33.7-.6-6.5-1.4-22.4-2-38.7-.9-22.8-2.1-41.4-3.1-47.3-.7-4 1.4-2.5 3.6 2.7zm-293.2 2c3.7 4 3.4 5.2-9 29.1-1.1 2.2-2.4 4.2-2.7 4.5-1.3 1-8.9 17.6-10.3 22.5-1.7 5.9-1.3 8.5 1.2 8.5 2.9 0 3 1.3.4 3.3-2.2 1.7-2.4 1.7-3.5-.4-1.1-2.2-1.1-2.2-2.9.7-1 1.6-2.1 3.9-2.4 5-.6 1.8-.2 2.2 2.1 2.2 1.6 0 4.5-.9 6.6-1.9 2-1.1 3.7-1.8 3.8-1.7.7 1.7.3 9.3-.6 12.8-2.1 7.9-2.9 8.8-7.5 8.4-3.4-.3-4-.1-4 1.6 0 1.7-.7 2-4.1 2-2.8 0-4.6-.6-5.5-1.8-1.1-1.5-2.5.9-11.3 19.1-5.6 11.5-10.1 21-10.1 21.2 0 .1-3.6 7.7-7.9 16.8-4.3 9-8.2 17.4-8.6 18.6-.3 1.1-1.1 2.1-1.6 2.1s-.9.6-.9 1.2c0 .7-1.2 4.1-2.7 7.6-2.6 6.3-2.7 6.3-6.2 5.8-4.6-.6-7.1-1.6-7.1-2.7 0-.5 1.6-3.1 3.5-5.8 2.9-4 7.7-13.6 12.5-24.6.8-1.9 6.4-18 12.3-35.5 6.9-20.3 13.3-34.3 20.1-44.3 2.5-3.7 4.6-6.9 4.6-7.2 0-.3.7-2.2 1.6-4.3.9-2 4.9-11.7 9-21.4 8.5-20.5 17.5-40.1 18.6-40.6.5-.2.8-1 .8-1.8 0-1 1.3-1.4 4.8-1.4 3.6 0 5.2.6 7 2.4zm454.3 72.3c.2 5.4 1.8 21 2.4 23.3.3.8.7 3.3 1 5.5.2 2.2.7 5.1 1 6.5.3 1.4.8 4.3 1 6.5.3 2.2.8 5.3 1.1 6.9 1.8 8.8 2.6 41.4 1.2 51.6-.9 7-.8 8.1 2 17 9 28.7 11.4 37 12.1 42.2.8 6.4.5 7.6-2.2 7.2-1.8-.2-1.9.4-1.2 12.4.4 7 .9 14.5 1 16.7.6 8 1.7 53.4 1.8 68.5 0 16.9-1.2 57.4-1.8 63-.2 1.9-.7 7.3-1 12-.6 8.7-1.2 14.8-2 21-.2 1.9-.7 5.9-1.1 8.9-.3 3-.8 6.3-1 7.5-.2 1.2-.7 4.1-1 6.6-.3 2.5-1 5-1.5 5.6-.5.6-.7 1.3-.5 1.5 1.7 1.6-9 37-12.5 41.4-1.4 1.8-2.1 7.7-2 17.3 0 8.9-.1 9.3-2.4 10.2-2.8 1.1-4.1 3.2-6.2 10.3-1.5 5.1-1.7 6.2-2.9 12.7-.4 1.9-.9 3.9-1.2 4.5-.3.5-.7 1.8-.8 3-.4 3.7-3.4 14.4-5.4 19-1.8 4.1-2.2 4.5-4 3.5-4.5-2.4-6.9-12-5-20.5 1.1-5.5 4.9-14.5 6.1-14.5.4 0 1-2.1 1.3-4.8 1.3-8.9 5.1-17.2 7.1-15.4.5.4.5.2.1-.5s0-2.3.9-3.7c1.2-1.8 1.7-5.8 2-15.7.4-14.2 1.3-29.5 2-36.9.2-2.5.7-7.4 1-11 .4-3.6.8-8.3 1.1-10.5 1.4-13 2.1-18.9 2.9-25.4.3-2.1.7-5.8.9-8.2.3-2.4.7-5.8.9-7.4.3-1.7.8-5.3 1.2-8 .3-2.8 1.2-10.2 2.1-16.5.8-6.3 1.6-12.9 1.9-14.5.2-1.7.6-5.7 1-9s.8-7.1 1-8.5c.2-1.4.7-6.1 1.1-10.5.3-4.4.8-8.8 1-9.8.2-1 .6-6.2.9-11.5.4-5.3.8-12.2 1-15.2 1-14.6.5-48.8-.9-62.5-.3-2.8-.8-7.7-1.1-11-.4-3.3-1-8.5-1.5-11.5s-1.2-7.1-1.5-9c-.3-1.9-1.3-6.4-2.1-10-1.8-7.3-1.8-7.7-2.9-28-.8-13-.9-37.3-.5-87.2.1-16.2.3-17.4 3.3-17.7.4-.1.7 1.1.8 2.6zm-485.5 44.1c-.2.4.6.8 1.8.8 4.4.3 37.1 21.8 35.9 23.7-.3.5-.1.7.4.4.6-.4 3 .7 5.4 2.4 11.6 8.1 32.8 21.7 35.7 23 3.1 1.3 3.1 1.4 1 2-4.8 1.1-62.9-28.4-61.3-31.2.4-.5 0-.6-.7-.4-.8.3-5.2-2.1-9.8-5.4-10.3-7.2-18.5-15.3-17.7-17.5.5-1.4 1.1-1.4 5.2 0 2.5.9 4.3 1.9 4.1 2.2zm204.9 65.1c.6.2.1.6-1 1-2.2.9-5.7.3-5-.9.4-.6 2.9-.7 6-.1zm19.5 3.1c3 .5 7.1 1.2 9 1.5 4 .7 4.3.9 3.8 2.8-.2 1.1-2.7.9-14.1-1.6-7.8-1.7-13.3-3.3-12.6-3.8 1.3-.7 4.2-.5 13.9 1.1zm32.8 8.5l4.7 2.6-5-.7c-2.7-.4-5.9-.8-7-1-1.1-.1-2.6-.3-3.2-.3-.7-.1-1.3-1-1.3-2.1 0-1.6.5-1.8 3.5-1.5 2 .3 5.7 1.6 8.3 3zm-316.4 1.6c5.5 4.8 5.5 5.4-.9 19.4-.8 1.6-3.2 6.9-5.4 11.7-3.5 7.8-4.3 8.8-6.6 8.8-1.4 0-3.8-.6-5.3-1.4-1.5-.7-4.4-1.6-6.4-2-2.1-.4-3.8-1.1-3.8-1.6s1.1-4.2 2.4-8.2c6.3-19.3 13.4-29.5 20.8-29.7 1-.1 3.3 1.3 5.2 3zm422.6 11.7c3.1 8.3 5.5 17.9 9.9 40.2 5.6 28.7 5.3 26.2 3.1 25.5-4.1-1.3-10.2-.7-12.9 1.2-7.3 5.5-6.5 20.6 2.6 50.1 2.4 7.7 2.5 10.8.3 8.6-.9-.9-5.1-12.2-11.3-29.9-2.7-7.7-3.1-10.4-3.2-19 0-10.7 1-15 6.7-27.4 3.5-7.6 3.4-8.7-1.2-25.6-4.1-14.9-4.3-22.4-.9-28.4 2.1-3.8 2.5-4.1 3.6-2.5.7 1 2.2 4.2 3.3 7.2zm92.7-5c.6.4 1.4 3.6 1.7 7.2.4 5.7 1.5 13.4 3.1 22 .2 1.4.6 3.6.9 5 .2 1.4 1.8 8.1 3.6 15 1.7 6.9 3.3 13.4 3.5 14.5.1 1.1.5 2.7.8 3.5 1.9 4.7 10.4 42 12.2 53.4.4 2.1.8 4.7 1 5.8 1.8 9.3 2.5 33.8 1.2 44.1-1.4 11.7-5.9 24.9-10.9 32l-2 2.7 3.2.6c2.7.6 3 1 2.6 3.3-.3 1.4-.8 4-1.1 5.7-1.6 9.8-7.1 18.6-14.7 23.6-7.1 4.7-11.4 6.9-12.2 6.1-.3-.4-.6.1-.6.9 0 2.2 2.1 2.8 9.2 2.8h6l-.7 5.7c-.4 3.2-.8 6.4-1 7.3-.1.8-.6 4.2-.9 7.5-.9 8.1-1.7 14.6-2.2 17-.2 1-.6 3.7-.9 6-.3 2.2-.8 4.8-1.1 5.7-.3.9-.7 2.6-.9 3.9-1.6 8.2-5.1 17.7-7 19.1-.5.4-.7.8-.2.8 1.7 0-4.6 10.2-9.2 14.9-5.6 5.5-13.5 9.1-20.1 9.1-12.3 0-24.2-28.1-23.6-55.5.3-10.6 1.7-16.4 5.1-20.2 1.9-2.3 2.6-2.6 3.6-1.6.7.7.9 1.3.4 1.3-.6 0-1.1 5.1-1.1 11.7-.1 10.1.1 12 1.6 13 1.4 1 1.7 2.9 1.7 11 .1 7.3.6 11.4 2.2 16.1 2.5 7.3 8.6 16.3 10.5 15.6.7-.3 3.8-.6 6.7-.7l5.4-.2 2.5-5c2.2-4.4 2.5-6.5 2.7-17 .2-6.6.3-12.3.3-12.7 0-.8 9.1-6.1 10.5-6.1.6 0 1-1.2.9-2.6-.1-2.6-.1-2.6-9.2-2.7-5 0-9.5-.3-9.8-.7-1.2-1.1 1.5-3.4 11.2-9.7l9.5-6.2-.4-5.6c-.3-4.9-.9-6.2-3.9-9.2-2.4-2.4-3.7-4.8-4.1-7.7-.7-4.1-.7-4.2-3.9-3.2-1.8.5-3.5.9-3.9.9-.3 0-.4-3.8-.3-8.4.2-9.6 1.9-14.1 7.1-18.7 4-3.5 3.7-1.3 4.8-29.9.4-9.6.8-19.8 1-22.5.1-2.8.3-8.7.4-13.3.1-6.4.4-8.1 1.4-7.6.7.5.7.1-.2-1-1.2-1.4-1.2-1.9-.2-2.6.9-.5 1-.9.2-1.4-.6-.4-.8-1.2-.4-1.9.3-.6.7-2.9.7-5.2.1-3.5-.2-4.1-1.9-4-1.1 0-3.9 2-6.1 4.3-7.2 7.3-7.4 6.6-4-14.3.8-5 1.8-11.3 2.1-14 .4-2.8.8-5.7 1-6.5.2-.8.7-3.8 1.1-6.5.3-2.8.8-5.7.9-6.5.2-.9.7-4.3 1.1-7.5.4-3.3.8-6.2.9-6.5.1-.3.5-3.4.9-7 .5-3.6 1-7.3 1.1-8.2.2-.9.7-4.8 1.1-8.5.9-8.6 1.2-10.8 1.4-10.8.8 0 1.3-35.2.5-36.5-1.7-2.7 4.1-5.2 7.2-3.2zm-534.3 39.1c2.7 3 1.6 3.4-2.7 1.1-2-1.1-4.4-2-5.2-2-1.3 0-1.4-.4-.5-2 1-1.8 1.3-1.9 3.8-.6 1.5.8 3.6 2.3 4.6 3.5zm499.3 147.3c.1 1.7 1.1 8.7 2.3 16.3.5 3.3 1.2 7.8 1.5 10 .4 2.2.8 5.1 1.1 6.5 1.4 8.2.3 18.6-3.2 28.3-1.4 4-2.8 8-3.1 8.9-.3 1-1 1.8-1.5 1.8s-.7.4-.4.9c.3.5.1 2.3-.5 4-1.5 4.3-4 3.7-5.8-1.4-1.9-5.5-2.1-26.3-.3-27.4.8-.5 1.4-1.2 1.3-1.7 0-.5.6-3.2 1.4-5.9.8-2.8 1.7-7 2-9.5.3-2.5.7-6.3 1-8.5.3-2.2.5-8.4.5-13.8 0-8.7.2-9.7 1.8-9.7 1 0 1.9.6 1.9 1.2zm70.3 209.6c-5.6 11.3-9.6 23.6-12 37.2-.6 3.6-1.4 7.5-1.7 8.8-.5 2.3-.5 2.3 5.5 1.7 3.3-.3 7-.8 8.1-1 1.2-.2 5.7-.7 10.1-1.1l8-.6 3.9 3.5c5.6 5.1 8.6 6.9 12.4 7.4 3.2.4 3.4.2 5.6-5.1 1.8-4.5 2.7-5.6 4.6-5.6 1.7 0 2.4.7 2.9 3.2.3 1.8 2 7.7 3.7 13.1 1.7 5.4 2.9 10.4 2.6 11-.4 1.1-2.5 1.6-8.2 2-3.4.2-9.5-1.3-9.5-2.4 0-.6-.4-.8-.9-.5-.5.3-4.6-2.1-9.2-5.4-12.4-8.9-17-10.9-24.9-10.6-7 .3-12.5 2.5-19.1 7.7-2 1.6-3.9 2.5-4.3 2.1-.4-.4-.6-.2-.4.3.5 1.8-10.5 12.5-12.8 12.5-2.9 0-3.1-.8-3.2-12.3-.1-11 1.1-15.9 6.5-27.5 3.2-7 5.7-15 7-22.6.2-1.6 1-4.1 1.5-5.5.6-1.4 1.3-3.4 1.5-4.4.7-4 3.4-7.7 5.6-7.8 4.9-.2 8.5-1.2 13.7-3.8 3-1.5 5.8-2.6 6.2-2.4.4.2-1 3.8-3.2 8.1z"/><path d="M600.6 932.7c-.4 1.8-1.2 3.5-1.7 3.8-1.7 1.1-.9 4.4 1.2 5.6 1.4.7 1.9.7 1.5 0-.4-.6 0-2.4.9-4 1.7-3.4 1.9-4.5.6-3.6-.5.3-1.1-.7-1.3-2.2l-.4-2.8-.8 3.2zM621.5 948.4c-2.5 5-2.7 8.5-.4 7 1.4-.8 5.8-10.7 5.3-11.6-1.1-1.7-2.3-.6-4.9 4.6zM631.6 954.6c-1.5 3.6-1.6 4.7-.6 5.9 1.1 1.3 1.6 1 3.1-2.6 2.2-4.7 2.3-5.2.9-4.4-.5.3-.7 0-.4-.8.3-.8.2-1.7-.3-2-.5-.3-1.7 1.5-2.7 3.9zM640.8 965.9c-1.3 1.8-1.4 2.6-.5 3.6 1 1 1.4.9 2-.8.4-1.1.6-2.8.5-3.6-.3-1.2-.7-1.1-2 .8zM550.5 949.7c-.5 1.6-.9 3.2-1 3.8-.2.5-.8 3-1.4 5.4-.7 2.3-1 4.6-.7 4.9.3.3.6-.2.6-1.1 0-1 .5-1.7 1-1.7.6 0 .9-.3.9-.8-.1-.4-.1-1.6.1-2.7l.1-2 .9 2c.6 1.4.9.2.9-4.3.1-6.8-.3-7.7-1.4-3.5zM549.5 966c-.4 1.7-.5 3.4-.2 3.6.3.3.8-.9 1.2-2.6.4-1.7.5-3.4.2-3.6-.3-.3-.8.9-1.2 2.6zM510 1091c-.7 1.7-1 3.3-.7 3.7 1 1 3.7-1.8 3.7-3.8 0-3.1-1.7-3-3 .1zM783.5 1231c-2.3 2.6-1.6 3.2 3 2.8l3.7-.3-2.4-2.3-2.5-2.2-1.8 2z"/></svg>